<svg viewBox="0 0 900 720" xmlns="http://www.w3.org/2000/svg" font-family="Segoe UI, Arial, sans-serif">
  <rect width="900" height="720" fill="#ffffff"/>
  <text x="30" y="34" font-size="20" font-weight="800" fill="#0B1D3A">DevOps Roadmap — Tac-Tic ERM</text>
  <text x="30" y="54" font-size="12" fill="#6b7280">Maturité ~15% → ~85% (scope implémenté) · ~45% du parcours global · branche devops/phase-1</text>

  <!-- legend -->
  <circle cx="540" cy="30" r="6" fill="#10b981"/><text x="552" y="34" font-size="11" fill="#6b7280">Fait</text>
  <circle cx="600" cy="30" r="6" fill="#f59e0b"/><text x="612" y="34" font-size="11" fill="#6b7280">En cours</text>
  <circle cx="690" cy="30" r="6" fill="#cbd5e1"/><text x="702" y="34" font-size="11" fill="#6b7280">Planifié</text>

  <!-- PHASE 1 -->
  <rect x="30" y="74" width="840" height="138" rx="10" fill="#f0fdf4" stroke="#10b981" stroke-width="1.5"/>
  <text x="48" y="100" font-size="15" font-weight="800" fill="#0B1D3A">Phase 1 · Foundation</text>
  <rect x="300" y="86" width="70" height="20" rx="10" fill="#10b981"/><text x="335" y="100" text-anchor="middle" font-size="11" font-weight="700" fill="#fff">DONE</text>
  <rect x="700" y="90" width="150" height="9" rx="4" fill="#10b981"/><text x="850" y="86" text-anchor="end" font-size="12" font-weight="800" fill="#10b981">100%</text>
  <text x="48" y="126" font-size="12" fill="#1f2937">✓ Docker 3 images (vérifié)   ✓ compose dev/prod   ✓ ESLint+Prettier+Husky</text>
  <text x="48" y="150" font-size="12" fill="#1f2937">✓ Winston + redaction secrets   ✓ /api/health + CORS   ✓ CI + security + Dependabot</text>
  <text x="48" y="174" font-size="12" fill="#1f2937">✓ Nginx (SSL) + PM2   ✓ stack vérifié bout-en-bout (4 endpoints 200)</text>

  <!-- PHASE 2 -->
  <rect x="30" y="226" width="840" height="138" rx="10" fill="#fffbeb" stroke="#f59e0b" stroke-width="2"/>
  <text x="48" y="252" font-size="15" font-weight="800" fill="#0B1D3A">Phase 2 · Automation &amp; Tests</text>
  <rect x="330" y="238" width="104" height="20" rx="10" fill="#f59e0b"/><text x="382" y="252" text-anchor="middle" font-size="11" font-weight="700" fill="#fff">IN PROGRESS</text>
  <text x="450" y="252" font-size="11" font-weight="700" fill="#ef4444">◀ VOUS ÊTES ICI</text>
  <rect x="700" y="242" width="150" height="9" rx="4" fill="#fef3c7"/><rect x="700" y="242" width="105" height="9" rx="4" fill="#f59e0b"/><text x="850" y="238" text-anchor="end" font-size="12" font-weight="800" fill="#f59e0b">~70%</text>
  <text x="48" y="278" font-size="12" fill="#1f2937">✓ CI lint→test→build→docker   ✓ tests unitaires redact + RSA signing + RBAC (18)</text>
  <text x="48" y="302" font-size="12" fill="#1f2937">✓ scan Trivy + Gitleaks   ✓ tests d'intégration flux auth complet (9) — 36 tests au total</text>
  <text x="48" y="326" font-size="12" fill="#64748b">○ seuils de couverture en CI   ○ branch protection   ○ workflow de déploiement staging</text>

  <!-- PHASE 3 -->
  <rect x="30" y="378" width="840" height="118" rx="10" fill="#f8fafc" stroke="#cbd5e1" stroke-width="1.5"/>
  <text x="48" y="404" font-size="15" font-weight="800" fill="#0B1D3A">Phase 3 · Production Readiness</text>
  <rect x="350" y="390" width="84" height="20" rx="10" fill="#94a3b8"/><text x="392" y="404" text-anchor="middle" font-size="11" font-weight="700" fill="#fff">PARTIAL</text>
  <rect x="700" y="394" width="150" height="9" rx="4" fill="#e5e7eb"/><rect x="700" y="394" width="38" height="9" rx="4" fill="#94a3b8"/><text x="850" y="390" text-anchor="end" font-size="12" font-weight="800" fill="#64748b">~25%</text>
  <text x="48" y="430" font-size="12" fill="#1f2937">◐ configs Nginx SSL + PM2 écrites (pas encore déployées)</text>
  <text x="48" y="454" font-size="12" fill="#64748b">○ Cypress E2E   ○ Prometheus + Grafana   ○ déploiement cloud/VPS</text>
  <text x="48" y="478" font-size="12" fill="#64748b">○ sauvegardes BD (mongodump cron)   ○ gate Trivy (échec sur CRITICAL)</text>

  <!-- PHASE 4 -->
  <rect x="30" y="510" width="840" height="118" rx="10" fill="#f8fafc" stroke="#cbd5e1" stroke-width="1.5"/>
  <text x="48" y="536" font-size="15" font-weight="800" fill="#0B1D3A">Phase 4 · Scale &amp; Optimize</text>
  <rect x="300" y="522" width="82" height="20" rx="10" fill="#cbd5e1"/><text x="341" y="536" text-anchor="middle" font-size="11" font-weight="700" fill="#475569">PLANNED</text>
  <rect x="700" y="526" width="150" height="9" rx="4" fill="#e5e7eb"/><text x="850" y="522" text-anchor="end" font-size="12" font-weight="800" fill="#94a3b8">0%</text>
  <text x="48" y="562" font-size="12" fill="#64748b">○ Kubernetes + autoscaling   ○ cache Redis   ○ load testing (k6)</text>
  <text x="48" y="586" font-size="12" fill="#64748b">○ MongoDB replica set (HA)   ○ agrégation logs ELK   ○ SonarQube</text>
  <text x="48" y="612" font-size="11" fill="#94a3b8">Phase 4 = travail d'échelle SaaS — "perspectives" du rapport, non requis pour la soutenance.</text>

  <!-- footer -->
  <rect x="30" y="644" width="840" height="38" rx="8" fill="#eff6ff" stroke="#3b82f6" stroke-width="1"/>
  <text x="48" y="668" font-size="12" font-weight="700" fill="#1d4ed8">Prochaine étape : finir Phase 2 (couverture + branch protection + staging), puis push de la branche &amp; PR.</text>
</svg>
